ISO-10303-21;
HEADER;
/* Generated by software containing ST-Developer
 * from STEP Tools, Inc. (www.steptools.com) 
 */

FILE_DESCRIPTION(
/* description */ (''),
/* implementation_level */ '2;1');

FILE_NAME(
/* name */ 'HackDeck Back Case.step',
/* time_stamp */ '2026-07-27T04:43:19+08:00',
/* author */ (''),
/* organization */ (''),
/* preprocessor_version */ 'ST-DEVELOPER v20.1',
/* originating_system */ 'Autodesk Translation Framework v15.8.0.0',
/* authorisation */ '');

FILE_SCHEMA (('AUTOMOTIVE_DESIGN { 1 0 10303 214 3 1 1 }'));
ENDSEC;

DATA;
#10=MECHANICAL_DESIGN_GEOMETRIC_PRESENTATION_REPRESENTATION('',(#13),#1344);
#11=SHAPE_REPRESENTATION_RELATIONSHIP('SRR','None',#1350,#12);
#12=ADVANCED_BREP_SHAPE_REPRESENTATION('',(#14),#1343);
#13=STYLED_ITEM('',(#1364),#14);
#14=MANIFOLD_SOLID_BREP('Back Case',#806);
#15=FACE_BOUND('',#111,.T.);
#16=FACE_BOUND('',#112,.T.);
#17=FACE_BOUND('',#113,.T.);
#18=FACE_BOUND('',#114,.T.);
#19=FACE_BOUND('',#116,.T.);
#20=FACE_BOUND('',#117,.T.);
#21=FACE_BOUND('',#118,.T.);
#22=FACE_BOUND('',#119,.T.);
#23=FACE_BOUND('',#120,.T.);
#24=FACE_BOUND('',#131,.T.);
#25=FACE_BOUND('',#132,.T.);
#26=FACE_BOUND('',#150,.T.);
#27=FACE_BOUND('',#151,.T.);
#28=FACE_BOUND('',#154,.T.);
#29=FACE_BOUND('',#155,.T.);
#30=FACE_BOUND('',#156,.T.);
#31=FACE_BOUND('',#157,.T.);
#32=FACE_BOUND('',#158,.T.);
#33=PLANE('',#817);
#34=PLANE('',#826);
#35=PLANE('',#832);
#36=PLANE('',#838);
#37=PLANE('',#839);
#38=PLANE('',#843);
#39=PLANE('',#847);
#40=PLANE('',#851);
#41=PLANE('',#855);
#42=PLANE('',#856);
#43=PLANE('',#857);
#44=PLANE('',#862);
#45=PLANE('',#863);
#46=PLANE('',#864);
#47=PLANE('',#865);
#48=PLANE('',#866);
#49=PLANE('',#869);
#50=PLANE('',#872);
#51=PLANE('',#875);
#52=PLANE('',#878);
#53=PLANE('',#879);
#54=PLANE('',#880);
#55=PLANE('',#881);
#56=PLANE('',#882);
#57=PLANE('',#883);
#58=PLANE('',#884);
#59=FACE_OUTER_BOUND('',#100,.T.);
#60=FACE_OUTER_BOUND('',#101,.T.);
#61=FACE_OUTER_BOUND('',#102,.T.);
#62=FACE_OUTER_BOUND('',#103,.T.);
#63=FACE_OUTER_BOUND('',#104,.T.);
#64=FACE_OUTER_BOUND('',#105,.T.);
#65=FACE_OUTER_BOUND('',#106,.T.);
#66=FACE_OUTER_BOUND('',#107,.T.);
#67=FACE_OUTER_BOUND('',#108,.T.);
#68=FACE_OUTER_BOUND('',#109,.T.);
#69=FACE_OUTER_BOUND('',#110,.T.);
#70=FACE_OUTER_BOUND('',#115,.T.);
#71=FACE_OUTER_BOUND('',#121,.T.);
#72=FACE_OUTER_BOUND('',#122,.T.);
#73=FACE_OUTER_BOUND('',#123,.T.);
#74=FACE_OUTER_BOUND('',#124,.T.);
#75=FACE_OUTER_BOUND('',#125,.T.);
#76=FACE_OUTER_BOUND('',#126,.T.);
#77=FACE_OUTER_BOUND('',#127,.T.);
#78=FACE_OUTER_BOUND('',#128,.T.);
#79=FACE_OUTER_BOUND('',#129,.T.);
#80=FACE_OUTER_BOUND('',#130,.T.);
#81=FACE_OUTER_BOUND('',#133,.T.);
#82=FACE_OUTER_BOUND('',#134,.T.);
#83=FACE_OUTER_BOUND('',#135,.T.);
#84=FACE_OUTER_BOUND('',#136,.T.);
#85=FACE_OUTER_BOUND('',#137,.T.);
#86=FACE_OUTER_BOUND('',#138,.T.);
#87=FACE_OUTER_BOUND('',#139,.T.);
#88=FACE_OUTER_BOUND('',#140,.T.);
#89=FACE_OUTER_BOUND('',#141,.T.);
#90=FACE_OUTER_BOUND('',#142,.T.);
#91=FACE_OUTER_BOUND('',#143,.T.);
#92=FACE_OUTER_BOUND('',#144,.T.);
#93=FACE_OUTER_BOUND('',#145,.T.);
#94=FACE_OUTER_BOUND('',#146,.T.);
#95=FACE_OUTER_BOUND('',#147,.T.);
#96=FACE_OUTER_BOUND('',#148,.T.);
#97=FACE_OUTER_BOUND('',#149,.T.);
#98=FACE_OUTER_BOUND('',#152,.T.);
#99=FACE_OUTER_BOUND('',#153,.T.);
#100=EDGE_LOOP('',(#528,#529,#530,#531));
#101=EDGE_LOOP('',(#532,#533,#534,#535));
#102=EDGE_LOOP('',(#536,#537,#538,#539));
#103=EDGE_LOOP('',(#540,#541,#542,#543));
#104=EDGE_LOOP('',(#544,#545,#546,#547,#548,#549));
#105=EDGE_LOOP('',(#550,#551,#552,#553));
#106=EDGE_LOOP('',(#554,#555));
#107=EDGE_LOOP('',(#556,#557,#558,#559,#560,#561));
#108=EDGE_LOOP('',(#562,#563,#564,#565));
#109=EDGE_LOOP('',(#566,#567,#568,#569,#570,#571));
#110=EDGE_LOOP('',(#572,#573,#574,#575,#576,#577,#578,#579,#580,#581,#582));
#111=EDGE_LOOP('',(#583));
#112=EDGE_LOOP('',(#584));
#113=EDGE_LOOP('',(#585));
#114=EDGE_LOOP('',(#586));
#115=EDGE_LOOP('',(#587,#588,#589,#590,#591,#592,#593,#594));
#116=EDGE_LOOP('',(#595));
#117=EDGE_LOOP('',(#596));
#118=EDGE_LOOP('',(#597));
#119=EDGE_LOOP('',(#598));
#120=EDGE_LOOP('',(#599));
#121=EDGE_LOOP('',(#600,#601,#602,#603));
#122=EDGE_LOOP('',(#604));
#123=EDGE_LOOP('',(#605,#606,#607,#608));
#124=EDGE_LOOP('',(#609));
#125=EDGE_LOOP('',(#610,#611,#612,#613));
#126=EDGE_LOOP('',(#614));
#127=EDGE_LOOP('',(#615,#616,#617,#618));
#128=EDGE_LOOP('',(#619));
#129=EDGE_LOOP('',(#620,#621,#622,#623,#624,#625));
#130=EDGE_LOOP('',(#626,#627,#628,#629));
#131=EDGE_LOOP('',(#630,#631,#632,#633,#634,#635,#636,#637));
#132=EDGE_LOOP('',(#638,#639,#640,#641));
#133=EDGE_LOOP('',(#642,#643,#644,#645));
#134=EDGE_LOOP('',(#646,#647,#648,#649));
#135=EDGE_LOOP('',(#650,#651,#652,#653));
#136=EDGE_LOOP('',(#654,#655,#656,#657));
#137=EDGE_LOOP('',(#658,#659,#660,#661));
#138=EDGE_LOOP('',(#662,#663,#664,#665));
#139=EDGE_LOOP('',(#666,#667,#668,#669));
#140=EDGE_LOOP('',(#670,#671,#672,#673));
#141=EDGE_LOOP('',(#674,#675,#676,#677));
#142=EDGE_LOOP('',(#678,#679,#680,#681));
#143=EDGE_LOOP('',(#682,#683,#684,#685));
#144=EDGE_LOOP('',(#686,#687,#688,#689));
#145=EDGE_LOOP('',(#690,#691,#692,#693,#694,#695,#696,#697));
#146=EDGE_LOOP('',(#698,#699,#700,#701));
#147=EDGE_LOOP('',(#702,#703,#704,#705));
#148=EDGE_LOOP('',(#706,#707,#708,#709,#710,#711,#712,#713,#714,#715,#716,
#717));
#149=EDGE_LOOP('',(#718,#719,#720,#721));
#150=EDGE_LOOP('',(#722,#723,#724,#725));
#151=EDGE_LOOP('',(#726,#727,#728,#729,#730,#731,#732,#733));
#152=EDGE_LOOP('',(#734,#735,#736,#737));
#153=EDGE_LOOP('',(#738,#739,#740,#741));
#154=EDGE_LOOP('',(#742));
#155=EDGE_LOOP('',(#743));
#156=EDGE_LOOP('',(#744));
#157=EDGE_LOOP('',(#745));
#158=EDGE_LOOP('',(#746,#747,#748,#749));
#159=LINE('',#1121,#234);
#160=LINE('',#1127,#235);
#161=LINE('',#1133,#236);
#162=LINE('',#1138,#237);
#163=LINE('',#1142,#238);
#164=LINE('',#1146,#239);
#165=LINE('',#1149,#240);
#166=LINE('',#1155,#241);
#167=LINE('',#1160,#242);
#168=LINE('',#1166,#243);
#169=LINE('',#1172,#244);
#170=LINE('',#1176,#245);
#171=LINE('',#1180,#246);
#172=LINE('',#1183,#247);
#173=LINE('',#1187,#248);
#174=LINE('',#1189,#249);
#175=LINE('',#1190,#250);
#176=LINE('',#1192,#251);
#177=LINE('',#1194,#252);
#178=LINE('',#1195,#253);
#179=LINE('',#1196,#254);
#180=LINE('',#1198,#255);
#181=LINE('',#1200,#256);
#182=LINE('',#1202,#257);
#183=LINE('',#1204,#258);
#184=LINE('',#1206,#259);
#185=LINE('',#1207,#260);
#186=LINE('',#1212,#261);
#187=LINE('',#1219,#262);
#188=LINE('',#1226,#263);
#189=LINE('',#1233,#264);
#190=LINE('',#1238,#265);
#191=LINE('',#1240,#266);
#192=LINE('',#1241,#267);
#193=LINE('',#1244,#268);
#194=LINE('',#1245,#269);
#195=LINE('',#1248,#270);
#196=LINE('',#1252,#271);
#197=LINE('',#1256,#272);
#198=LINE('',#1260,#273);
#199=LINE('',#1264,#274);
#200=LINE('',#1266,#275);
#201=LINE('',#1268,#276);
#202=LINE('',#1269,#277);
#203=LINE('',#1272,#278);
#204=LINE('',#1274,#279);
#205=LINE('',#1275,#280);
#206=LINE('',#1278,#281);
#207=LINE('',#1279,#282);
#208=LINE('',#1282,#283);
#209=LINE('',#1283,#284);
#210=LINE('',#1285,#285);
#211=LINE('',#1288,#286);
#212=LINE('',#1290,#287);
#213=LINE('',#1291,#288);
#214=LINE('',#1295,#289);
#215=LINE('',#1298,#290);
#216=LINE('',#1299,#291);
#217=LINE('',#1303,#292);
#218=LINE('',#1306,#293);
#219=LINE('',#1307,#294);
#220=LINE('',#1311,#295);
#221=LINE('',#1314,#296);
#222=LINE('',#1315,#297);
#223=LINE('',#1320,#298);
#224=LINE('',#1321,#299);
#225=LINE('',#1323,#300);
#226=LINE('',#1327,#301);
#227=LINE('',#1328,#302);
#228=LINE('',#1329,#303);
#229=LINE('',#1332,#304);
#230=LINE('',#1333,#305);
#231=LINE('',#1336,#306);
#232=LINE('',#1337,#307);
#233=LINE('',#1339,#308);
#234=VECTOR('',#891,6.48466109617097);
#235=VECTOR('',#898,6.48466109617097);
#236=VECTOR('',#905,6.48466109617097);
#237=VECTOR('',#910,10.);
#238=VECTOR('',#913,10.);
#239=VECTOR('',#918,10.);
#240=VECTOR('',#921,10.);
#241=VECTOR('',#928,6.48466109617097);
#242=VECTOR('',#933,10.);
#243=VECTOR('',#940,6.48466109617097);
#244=VECTOR('',#947,10.);
#245=VECTOR('',#950,10.);
#246=VECTOR('',#955,10.);
#247=VECTOR('',#958,10.);
#248=VECTOR('',#963,10.);
#249=VECTOR('',#964,10.);
#250=VECTOR('',#965,10.);
#251=VECTOR('',#966,10.);
#252=VECTOR('',#967,10.);
#253=VECTOR('',#968,10.);
#254=VECTOR('',#969,10.);
#255=VECTOR('',#972,10.);
#256=VECTOR('',#973,10.);
#257=VECTOR('',#974,10.);
#258=VECTOR('',#975,10.);
#259=VECTOR('',#976,10.);
#260=VECTOR('',#977,10.);
#261=VECTOR('',#982,1.5);
#262=VECTOR('',#991,1.5);
#263=VECTOR('',#1000,1.5);
#264=VECTOR('',#1009,1.5);
#265=VECTOR('',#1016,10.);
#266=VECTOR('',#1017,10.);
#267=VECTOR('',#1018,10.);
#268=VECTOR('',#1021,10.);
#269=VECTOR('',#1022,10.);
#270=VECTOR('',#1023,10.);
#271=VECTOR('',#1026,10.);
#272=VECTOR('',#1029,10.);
#273=VECTOR('',#1032,10.);
#274=VECTOR('',#1035,10.);
#275=VECTOR('',#1036,10.);
#276=VECTOR('',#1037,10.);
#277=VECTOR('',#1038,10.);
#278=VECTOR('',#1041,10.);
#279=VECTOR('',#1042,10.);
#280=VECTOR('',#1043,10.);
#281=VECTOR('',#1046,10.);
#282=VECTOR('',#1047,10.);
#283=VECTOR('',#1050,10.);
#284=VECTOR('',#1051,10.);
#285=VECTOR('',#1054,10.);
#286=VECTOR('',#1057,10.);
#287=VECTOR('',#1058,10.);
#288=VECTOR('',#1059,10.);
#289=VECTOR('',#1064,10.);
#290=VECTOR('',#1067,10.);
#291=VECTOR('',#1068,10.);
#292=VECTOR('',#1073,10.);
#293=VECTOR('',#1076,10.);
#294=VECTOR('',#1077,10.);
#295=VECTOR('',#1082,10.);
#296=VECTOR('',#1085,10.);
#297=VECTOR('',#1086,10.);
#298=VECTOR('',#1093,10.);
#299=VECTOR('',#1094,10.);
#300=VECTOR('',#1097,10.);
#301=VECTOR('',#1100,10.);
#302=VECTOR('',#1101,10.);
#303=VECTOR('',#1102,10.);
#304=VECTOR('',#1105,10.);
#305=VECTOR('',#1106,10.);
#306=VECTOR('',#1109,10.);
#307=VECTOR('',#1110,10.);
#308=VECTOR('',#1113,10.);
#309=CIRCLE('',#809,6.48466109617097);
#310=CIRCLE('',#810,6.48466109617097);
#311=CIRCLE('',#812,6.48466109617097);
#312=CIRCLE('',#813,6.48466109617097);
#313=CIRCLE('',#815,6.48466109617097);
#314=CIRCLE('',#816,6.48466109617097);
#315=CIRCLE('',#818,6.48466109617097);
#316=CIRCLE('',#819,6.48466109617097);
#317=CIRCLE('',#821,6.48466109617097);
#318=CIRCLE('',#822,6.48466109617097);
#319=CIRCLE('',#824,6.48466109617097);
#320=CIRCLE('',#825,6.48466109617097);
#321=CIRCLE('',#827,6.48466109617097);
#322=CIRCLE('',#829,6.48466109617097);
#323=CIRCLE('',#830,6.48466109617097);
#324=CIRCLE('',#831,6.48466109617097);
#325=CIRCLE('',#833,6.48466109617097);
#326=CIRCLE('',#834,6.48466109617097);
#327=CIRCLE('',#836,6.48466109617097);
#328=CIRCLE('',#837,6.48466109617097);
#329=CIRCLE('',#841,1.5);
#330=CIRCLE('',#842,1.5);
#331=CIRCLE('',#845,1.5);
#332=CIRCLE('',#846,1.5);
#333=CIRCLE('',#849,1.5);
#334=CIRCLE('',#850,1.5);
#335=CIRCLE('',#853,1.5);
#336=CIRCLE('',#854,1.5);
#337=CIRCLE('',#858,1.07798770134255);
#338=CIRCLE('',#859,1.1940488352326);
#339=CIRCLE('',#860,1.14044585982385);
#340=CIRCLE('',#861,1.20396338091393);
#341=CIRCLE('',#868,1.14044585982385);
#342=CIRCLE('',#871,1.20396338091393);
#343=CIRCLE('',#874,1.07798770134255);
#344=CIRCLE('',#877,1.1940488352326);
#345=VERTEX_POINT('',#1118);
#346=VERTEX_POINT('',#1120);
#347=VERTEX_POINT('',#1124);
#348=VERTEX_POINT('',#1126);
#349=VERTEX_POINT('',#1130);
#350=VERTEX_POINT('',#1132);
#351=VERTEX_POINT('',#1136);
#352=VERTEX_POINT('',#1137);
#353=VERTEX_POINT('',#1139);
#354=VERTEX_POINT('',#1141);
#355=VERTEX_POINT('',#1145);
#356=VERTEX_POINT('',#1147);
#357=VERTEX_POINT('',#1152);
#358=VERTEX_POINT('',#1154);
#359=VERTEX_POINT('',#1158);
#360=VERTEX_POINT('',#1159);
#361=VERTEX_POINT('',#1163);
#362=VERTEX_POINT('',#1165);
#363=VERTEX_POINT('',#1170);
#364=VERTEX_POINT('',#1171);
#365=VERTEX_POINT('',#1173);
#366=VERTEX_POINT('',#1175);
#367=VERTEX_POINT('',#1179);
#368=VERTEX_POINT('',#1181);
#369=VERTEX_POINT('',#1186);
#370=VERTEX_POINT('',#1188);
#371=VERTEX_POINT('',#1191);
#372=VERTEX_POINT('',#1193);
#373=VERTEX_POINT('',#1199);
#374=VERTEX_POINT('',#1201);
#375=VERTEX_POINT('',#1203);
#376=VERTEX_POINT('',#1205);
#377=VERTEX_POINT('',#1209);
#378=VERTEX_POINT('',#1211);
#379=VERTEX_POINT('',#1216);
#380=VERTEX_POINT('',#1218);
#381=VERTEX_POINT('',#1223);
#382=VERTEX_POINT('',#1225);
#383=VERTEX_POINT('',#1230);
#384=VERTEX_POINT('',#1232);
#385=VERTEX_POINT('',#1237);
#386=VERTEX_POINT('',#1239);
#387=VERTEX_POINT('',#1243);
#388=VERTEX_POINT('',#1246);
#389=VERTEX_POINT('',#1247);
#390=VERTEX_POINT('',#1249);
#391=VERTEX_POINT('',#1251);
#392=VERTEX_POINT('',#1253);
#393=VERTEX_POINT('',#1255);
#394=VERTEX_POINT('',#1257);
#395=VERTEX_POINT('',#1259);
#396=VERTEX_POINT('',#1262);
#397=VERTEX_POINT('',#1263);
#398=VERTEX_POINT('',#1265);
#399=VERTEX_POINT('',#1267);
#400=VERTEX_POINT('',#1271);
#401=VERTEX_POINT('',#1273);
#402=VERTEX_POINT('',#1277);
#403=VERTEX_POINT('',#1281);
#404=VERTEX_POINT('',#1287);
#405=VERTEX_POINT('',#1289);
#406=VERTEX_POINT('',#1293);
#407=VERTEX_POINT('',#1297);
#408=VERTEX_POINT('',#1301);
#409=VERTEX_POINT('',#1305);
#410=VERTEX_POINT('',#1309);
#411=VERTEX_POINT('',#1313);
#412=VERTEX_POINT('',#1319);
#413=VERTEX_POINT('',#1325);
#414=VERTEX_POINT('',#1326);
#415=VERTEX_POINT('',#1331);
#416=VERTEX_POINT('',#1335);
#417=EDGE_CURVE('',#345,#345,#309,.T.);
#418=EDGE_CURVE('',#345,#346,#159,.T.);
#419=EDGE_CURVE('',#346,#346,#310,.T.);
#420=EDGE_CURVE('',#347,#347,#311,.T.);
#421=EDGE_CURVE('',#347,#348,#160,.T.);
#422=EDGE_CURVE('',#348,#348,#312,.T.);
#423=EDGE_CURVE('',#349,#349,#313,.T.);
#424=EDGE_CURVE('',#349,#350,#161,.T.);
#425=EDGE_CURVE('',#350,#350,#314,.T.);
#426=EDGE_CURVE('',#351,#352,#162,.T.);
#427=EDGE_CURVE('',#351,#353,#315,.T.);
#428=EDGE_CURVE('',#354,#353,#163,.T.);
#429=EDGE_CURVE('',#354,#352,#316,.T.);
#430=EDGE_CURVE('',#355,#354,#164,.T.);
#431=EDGE_CURVE('',#356,#355,#317,.T.);
#432=EDGE_CURVE('',#353,#356,#165,.T.);
#433=EDGE_CURVE('',#352,#351,#318,.T.);
#434=EDGE_CURVE('',#357,#357,#319,.T.);
#435=EDGE_CURVE('',#357,#358,#166,.T.);
#436=EDGE_CURVE('',#358,#358,#320,.T.);
#437=EDGE_CURVE('',#359,#360,#167,.T.);
#438=EDGE_CURVE('',#359,#360,#321,.T.);
#439=EDGE_CURVE('',#361,#361,#322,.T.);
#440=EDGE_CURVE('',#361,#362,#168,.T.);
#441=EDGE_CURVE('',#360,#362,#323,.T.);
#442=EDGE_CURVE('',#362,#359,#324,.T.);
#443=EDGE_CURVE('',#363,#364,#169,.T.);
#444=EDGE_CURVE('',#363,#365,#325,.T.);
#445=EDGE_CURVE('',#366,#365,#170,.T.);
#446=EDGE_CURVE('',#366,#364,#326,.T.);
#447=EDGE_CURVE('',#367,#366,#171,.T.);
#448=EDGE_CURVE('',#368,#367,#327,.T.);
#449=EDGE_CURVE('',#365,#368,#172,.T.);
#450=EDGE_CURVE('',#364,#363,#328,.T.);
#451=EDGE_CURVE('',#369,#351,#173,.T.);
#452=EDGE_CURVE('',#370,#369,#174,.T.);
#453=EDGE_CURVE('',#360,#370,#175,.T.);
#454=EDGE_CURVE('',#371,#359,#176,.T.);
#455=EDGE_CURVE('',#372,#371,#177,.T.);
#456=EDGE_CURVE('',#364,#372,#178,.T.);
#457=EDGE_CURVE('',#352,#363,#179,.T.);
#458=EDGE_CURVE('',#355,#368,#180,.T.);
#459=EDGE_CURVE('',#367,#373,#181,.T.);
#460=EDGE_CURVE('',#373,#374,#182,.T.);
#461=EDGE_CURVE('',#374,#375,#183,.T.);
#462=EDGE_CURVE('',#375,#376,#184,.T.);
#463=EDGE_CURVE('',#376,#356,#185,.T.);
#464=EDGE_CURVE('',#377,#377,#329,.T.);
#465=EDGE_CURVE('',#377,#378,#186,.T.);
#466=EDGE_CURVE('',#378,#378,#330,.T.);
#467=EDGE_CURVE('',#379,#379,#331,.T.);
#468=EDGE_CURVE('',#379,#380,#187,.T.);
#469=EDGE_CURVE('',#380,#380,#332,.T.);
#470=EDGE_CURVE('',#381,#381,#333,.T.);
#471=EDGE_CURVE('',#381,#382,#188,.T.);
#472=EDGE_CURVE('',#382,#382,#334,.T.);
#473=EDGE_CURVE('',#383,#383,#335,.T.);
#474=EDGE_CURVE('',#383,#384,#189,.T.);
#475=EDGE_CURVE('',#384,#384,#336,.T.);
#476=EDGE_CURVE('',#385,#370,#190,.T.);
#477=EDGE_CURVE('',#385,#386,#191,.T.);
#478=EDGE_CURVE('',#386,#371,#192,.T.);
#479=EDGE_CURVE('',#387,#369,#193,.T.);
#480=EDGE_CURVE('',#387,#385,#194,.T.);
#481=EDGE_CURVE('',#388,#389,#195,.T.);
#482=EDGE_CURVE('',#389,#390,#337,.T.);
#483=EDGE_CURVE('',#390,#391,#196,.T.);
#484=EDGE_CURVE('',#391,#392,#338,.T.);
#485=EDGE_CURVE('',#392,#393,#197,.T.);
#486=EDGE_CURVE('',#393,#394,#339,.T.);
#487=EDGE_CURVE('',#394,#395,#198,.T.);
#488=EDGE_CURVE('',#395,#388,#340,.T.);
#489=EDGE_CURVE('',#396,#397,#199,.T.);
#490=EDGE_CURVE('',#397,#398,#200,.T.);
#491=EDGE_CURVE('',#398,#399,#201,.T.);
#492=EDGE_CURVE('',#399,#396,#202,.T.);
#493=EDGE_CURVE('',#400,#398,#203,.T.);
#494=EDGE_CURVE('',#401,#400,#204,.T.);
#495=EDGE_CURVE('',#401,#399,#205,.T.);
#496=EDGE_CURVE('',#402,#401,#206,.T.);
#497=EDGE_CURVE('',#402,#396,#207,.T.);
#498=EDGE_CURVE('',#403,#402,#208,.T.);
#499=EDGE_CURVE('',#403,#397,#209,.T.);
#500=EDGE_CURVE('',#400,#403,#210,.T.);
#501=EDGE_CURVE('',#404,#392,#211,.T.);
#502=EDGE_CURVE('',#405,#404,#212,.T.);
#503=EDGE_CURVE('',#405,#393,#213,.T.);
#504=EDGE_CURVE('',#406,#405,#341,.T.);
#505=EDGE_CURVE('',#406,#394,#214,.T.);
#506=EDGE_CURVE('',#407,#406,#215,.T.);
#507=EDGE_CURVE('',#407,#395,#216,.T.);
#508=EDGE_CURVE('',#408,#407,#342,.T.);
#509=EDGE_CURVE('',#408,#388,#217,.T.);
#510=EDGE_CURVE('',#409,#408,#218,.T.);
#511=EDGE_CURVE('',#409,#389,#219,.T.);
#512=EDGE_CURVE('',#410,#409,#343,.T.);
#513=EDGE_CURVE('',#410,#390,#220,.T.);
#514=EDGE_CURVE('',#411,#410,#221,.T.);
#515=EDGE_CURVE('',#411,#391,#222,.T.);
#516=EDGE_CURVE('',#404,#411,#344,.T.);
#517=EDGE_CURVE('',#412,#372,#223,.T.);
#518=EDGE_CURVE('',#412,#387,#224,.T.);
#519=EDGE_CURVE('',#386,#412,#225,.T.);
#520=EDGE_CURVE('',#413,#414,#226,.T.);
#521=EDGE_CURVE('',#414,#374,#227,.T.);
#522=EDGE_CURVE('',#413,#373,#228,.T.);
#523=EDGE_CURVE('',#415,#376,#229,.T.);
#524=EDGE_CURVE('',#415,#413,#230,.T.);
#525=EDGE_CURVE('',#415,#416,#231,.T.);
#526=EDGE_CURVE('',#416,#375,#232,.T.);
#527=EDGE_CURVE('',#414,#416,#233,.T.);
#528=ORIENTED_EDGE('',*,*,#417,.F.);
#529=ORIENTED_EDGE('',*,*,#418,.T.);
#530=ORIENTED_EDGE('',*,*,#419,.F.);
#531=ORIENTED_EDGE('',*,*,#418,.F.);
#532=ORIENTED_EDGE('',*,*,#420,.F.);
#533=ORIENTED_EDGE('',*,*,#421,.T.);
#534=ORIENTED_EDGE('',*,*,#422,.F.);
#535=ORIENTED_EDGE('',*,*,#421,.F.);
#536=ORIENTED_EDGE('',*,*,#423,.F.);
#537=ORIENTED_EDGE('',*,*,#424,.T.);
#538=ORIENTED_EDGE('',*,*,#425,.F.);
#539=ORIENTED_EDGE('',*,*,#424,.F.);
#540=ORIENTED_EDGE('',*,*,#426,.F.);
#541=ORIENTED_EDGE('',*,*,#427,.T.);
#542=ORIENTED_EDGE('',*,*,#428,.F.);
#543=ORIENTED_EDGE('',*,*,#429,.T.);
#544=ORIENTED_EDGE('',*,*,#429,.F.);
#545=ORIENTED_EDGE('',*,*,#430,.F.);
#546=ORIENTED_EDGE('',*,*,#431,.F.);
#547=ORIENTED_EDGE('',*,*,#432,.F.);
#548=ORIENTED_EDGE('',*,*,#427,.F.);
#549=ORIENTED_EDGE('',*,*,#433,.F.);
#550=ORIENTED_EDGE('',*,*,#434,.F.);
#551=ORIENTED_EDGE('',*,*,#435,.T.);
#552=ORIENTED_EDGE('',*,*,#436,.F.);
#553=ORIENTED_EDGE('',*,*,#435,.F.);
#554=ORIENTED_EDGE('',*,*,#437,.F.);
#555=ORIENTED_EDGE('',*,*,#438,.T.);
#556=ORIENTED_EDGE('',*,*,#439,.F.);
#557=ORIENTED_EDGE('',*,*,#440,.T.);
#558=ORIENTED_EDGE('',*,*,#441,.F.);
#559=ORIENTED_EDGE('',*,*,#438,.F.);
#560=ORIENTED_EDGE('',*,*,#442,.F.);
#561=ORIENTED_EDGE('',*,*,#440,.F.);
#562=ORIENTED_EDGE('',*,*,#443,.F.);
#563=ORIENTED_EDGE('',*,*,#444,.T.);
#564=ORIENTED_EDGE('',*,*,#445,.F.);
#565=ORIENTED_EDGE('',*,*,#446,.T.);
#566=ORIENTED_EDGE('',*,*,#446,.F.);
#567=ORIENTED_EDGE('',*,*,#447,.F.);
#568=ORIENTED_EDGE('',*,*,#448,.F.);
#569=ORIENTED_EDGE('',*,*,#449,.F.);
#570=ORIENTED_EDGE('',*,*,#444,.F.);
#571=ORIENTED_EDGE('',*,*,#450,.F.);
#572=ORIENTED_EDGE('',*,*,#433,.T.);
#573=ORIENTED_EDGE('',*,*,#451,.F.);
#574=ORIENTED_EDGE('',*,*,#452,.F.);
#575=ORIENTED_EDGE('',*,*,#453,.F.);
#576=ORIENTED_EDGE('',*,*,#441,.T.);
#577=ORIENTED_EDGE('',*,*,#442,.T.);
#578=ORIENTED_EDGE('',*,*,#454,.F.);
#579=ORIENTED_EDGE('',*,*,#455,.F.);
#580=ORIENTED_EDGE('',*,*,#456,.F.);
#581=ORIENTED_EDGE('',*,*,#450,.T.);
#582=ORIENTED_EDGE('',*,*,#457,.F.);
#583=ORIENTED_EDGE('',*,*,#436,.T.);
#584=ORIENTED_EDGE('',*,*,#425,.T.);
#585=ORIENTED_EDGE('',*,*,#422,.T.);
#586=ORIENTED_EDGE('',*,*,#419,.T.);
#587=ORIENTED_EDGE('',*,*,#431,.T.);
#588=ORIENTED_EDGE('',*,*,#458,.T.);
#589=ORIENTED_EDGE('',*,*,#448,.T.);
#590=ORIENTED_EDGE('',*,*,#459,.T.);
#591=ORIENTED_EDGE('',*,*,#460,.T.);
#592=ORIENTED_EDGE('',*,*,#461,.T.);
#593=ORIENTED_EDGE('',*,*,#462,.T.);
#594=ORIENTED_EDGE('',*,*,#463,.T.);
#595=ORIENTED_EDGE('',*,*,#439,.T.);
#596=ORIENTED_EDGE('',*,*,#434,.T.);
#597=ORIENTED_EDGE('',*,*,#423,.T.);
#598=ORIENTED_EDGE('',*,*,#420,.T.);
#599=ORIENTED_EDGE('',*,*,#417,.T.);
#600=ORIENTED_EDGE('',*,*,#464,.F.);
#601=ORIENTED_EDGE('',*,*,#465,.T.);
#602=ORIENTED_EDGE('',*,*,#466,.F.);
#603=ORIENTED_EDGE('',*,*,#465,.F.);
#604=ORIENTED_EDGE('',*,*,#464,.T.);
#605=ORIENTED_EDGE('',*,*,#467,.F.);
#606=ORIENTED_EDGE('',*,*,#468,.T.);
#607=ORIENTED_EDGE('',*,*,#469,.F.);
#608=ORIENTED_EDGE('',*,*,#468,.F.);
#609=ORIENTED_EDGE('',*,*,#467,.T.);
#610=ORIENTED_EDGE('',*,*,#470,.F.);
#611=ORIENTED_EDGE('',*,*,#471,.T.);
#612=ORIENTED_EDGE('',*,*,#472,.F.);
#613=ORIENTED_EDGE('',*,*,#471,.F.);
#614=ORIENTED_EDGE('',*,*,#470,.T.);
#615=ORIENTED_EDGE('',*,*,#473,.F.);
#616=ORIENTED_EDGE('',*,*,#474,.T.);
#617=ORIENTED_EDGE('',*,*,#475,.F.);
#618=ORIENTED_EDGE('',*,*,#474,.F.);
#619=ORIENTED_EDGE('',*,*,#473,.T.);
#620=ORIENTED_EDGE('',*,*,#454,.T.);
#621=ORIENTED_EDGE('',*,*,#437,.T.);
#622=ORIENTED_EDGE('',*,*,#453,.T.);
#623=ORIENTED_EDGE('',*,*,#476,.F.);
#624=ORIENTED_EDGE('',*,*,#477,.T.);
#625=ORIENTED_EDGE('',*,*,#478,.T.);
#626=ORIENTED_EDGE('',*,*,#452,.T.);
#627=ORIENTED_EDGE('',*,*,#479,.F.);
#628=ORIENTED_EDGE('',*,*,#480,.T.);
#629=ORIENTED_EDGE('',*,*,#476,.T.);
#630=ORIENTED_EDGE('',*,*,#481,.T.);
#631=ORIENTED_EDGE('',*,*,#482,.T.);
#632=ORIENTED_EDGE('',*,*,#483,.T.);
#633=ORIENTED_EDGE('',*,*,#484,.T.);
#634=ORIENTED_EDGE('',*,*,#485,.T.);
#635=ORIENTED_EDGE('',*,*,#486,.T.);
#636=ORIENTED_EDGE('',*,*,#487,.T.);
#637=ORIENTED_EDGE('',*,*,#488,.T.);
#638=ORIENTED_EDGE('',*,*,#489,.T.);
#639=ORIENTED_EDGE('',*,*,#490,.T.);
#640=ORIENTED_EDGE('',*,*,#491,.T.);
#641=ORIENTED_EDGE('',*,*,#492,.T.);
#642=ORIENTED_EDGE('',*,*,#491,.F.);
#643=ORIENTED_EDGE('',*,*,#493,.F.);
#644=ORIENTED_EDGE('',*,*,#494,.F.);
#645=ORIENTED_EDGE('',*,*,#495,.T.);
#646=ORIENTED_EDGE('',*,*,#492,.F.);
#647=ORIENTED_EDGE('',*,*,#495,.F.);
#648=ORIENTED_EDGE('',*,*,#496,.F.);
#649=ORIENTED_EDGE('',*,*,#497,.T.);
#650=ORIENTED_EDGE('',*,*,#489,.F.);
#651=ORIENTED_EDGE('',*,*,#497,.F.);
#652=ORIENTED_EDGE('',*,*,#498,.F.);
#653=ORIENTED_EDGE('',*,*,#499,.T.);
#654=ORIENTED_EDGE('',*,*,#490,.F.);
#655=ORIENTED_EDGE('',*,*,#499,.F.);
#656=ORIENTED_EDGE('',*,*,#500,.F.);
#657=ORIENTED_EDGE('',*,*,#493,.T.);
#658=ORIENTED_EDGE('',*,*,#485,.F.);
#659=ORIENTED_EDGE('',*,*,#501,.F.);
#660=ORIENTED_EDGE('',*,*,#502,.F.);
#661=ORIENTED_EDGE('',*,*,#503,.T.);
#662=ORIENTED_EDGE('',*,*,#486,.F.);
#663=ORIENTED_EDGE('',*,*,#503,.F.);
#664=ORIENTED_EDGE('',*,*,#504,.F.);
#665=ORIENTED_EDGE('',*,*,#505,.T.);
#666=ORIENTED_EDGE('',*,*,#487,.F.);
#667=ORIENTED_EDGE('',*,*,#505,.F.);
#668=ORIENTED_EDGE('',*,*,#506,.F.);
#669=ORIENTED_EDGE('',*,*,#507,.T.);
#670=ORIENTED_EDGE('',*,*,#488,.F.);
#671=ORIENTED_EDGE('',*,*,#507,.F.);
#672=ORIENTED_EDGE('',*,*,#508,.F.);
#673=ORIENTED_EDGE('',*,*,#509,.T.);
#674=ORIENTED_EDGE('',*,*,#481,.F.);
#675=ORIENTED_EDGE('',*,*,#509,.F.);
#676=ORIENTED_EDGE('',*,*,#510,.F.);
#677=ORIENTED_EDGE('',*,*,#511,.T.);
#678=ORIENTED_EDGE('',*,*,#482,.F.);
#679=ORIENTED_EDGE('',*,*,#511,.F.);
#680=ORIENTED_EDGE('',*,*,#512,.F.);
#681=ORIENTED_EDGE('',*,*,#513,.T.);
#682=ORIENTED_EDGE('',*,*,#483,.F.);
#683=ORIENTED_EDGE('',*,*,#513,.F.);
#684=ORIENTED_EDGE('',*,*,#514,.F.);
#685=ORIENTED_EDGE('',*,*,#515,.T.);
#686=ORIENTED_EDGE('',*,*,#484,.F.);
#687=ORIENTED_EDGE('',*,*,#515,.F.);
#688=ORIENTED_EDGE('',*,*,#516,.F.);
#689=ORIENTED_EDGE('',*,*,#501,.T.);
#690=ORIENTED_EDGE('',*,*,#451,.T.);
#691=ORIENTED_EDGE('',*,*,#426,.T.);
#692=ORIENTED_EDGE('',*,*,#457,.T.);
#693=ORIENTED_EDGE('',*,*,#443,.T.);
#694=ORIENTED_EDGE('',*,*,#456,.T.);
#695=ORIENTED_EDGE('',*,*,#517,.F.);
#696=ORIENTED_EDGE('',*,*,#518,.T.);
#697=ORIENTED_EDGE('',*,*,#479,.T.);
#698=ORIENTED_EDGE('',*,*,#455,.T.);
#699=ORIENTED_EDGE('',*,*,#478,.F.);
#700=ORIENTED_EDGE('',*,*,#519,.T.);
#701=ORIENTED_EDGE('',*,*,#517,.T.);
#702=ORIENTED_EDGE('',*,*,#520,.T.);
#703=ORIENTED_EDGE('',*,*,#521,.T.);
#704=ORIENTED_EDGE('',*,*,#460,.F.);
#705=ORIENTED_EDGE('',*,*,#522,.F.);
#706=ORIENTED_EDGE('',*,*,#432,.T.);
#707=ORIENTED_EDGE('',*,*,#463,.F.);
#708=ORIENTED_EDGE('',*,*,#523,.F.);
#709=ORIENTED_EDGE('',*,*,#524,.T.);
#710=ORIENTED_EDGE('',*,*,#522,.T.);
#711=ORIENTED_EDGE('',*,*,#459,.F.);
#712=ORIENTED_EDGE('',*,*,#447,.T.);
#713=ORIENTED_EDGE('',*,*,#445,.T.);
#714=ORIENTED_EDGE('',*,*,#449,.T.);
#715=ORIENTED_EDGE('',*,*,#458,.F.);
#716=ORIENTED_EDGE('',*,*,#430,.T.);
#717=ORIENTED_EDGE('',*,*,#428,.T.);
#718=ORIENTED_EDGE('',*,*,#525,.F.);
#719=ORIENTED_EDGE('',*,*,#523,.T.);
#720=ORIENTED_EDGE('',*,*,#462,.F.);
#721=ORIENTED_EDGE('',*,*,#526,.F.);
#722=ORIENTED_EDGE('',*,*,#498,.T.);
#723=ORIENTED_EDGE('',*,*,#496,.T.);
#724=ORIENTED_EDGE('',*,*,#494,.T.);
#725=ORIENTED_EDGE('',*,*,#500,.T.);
#726=ORIENTED_EDGE('',*,*,#510,.T.);
#727=ORIENTED_EDGE('',*,*,#508,.T.);
#728=ORIENTED_EDGE('',*,*,#506,.T.);
#729=ORIENTED_EDGE('',*,*,#504,.T.);
#730=ORIENTED_EDGE('',*,*,#502,.T.);
#731=ORIENTED_EDGE('',*,*,#516,.T.);
#732=ORIENTED_EDGE('',*,*,#514,.T.);
#733=ORIENTED_EDGE('',*,*,#512,.T.);
#734=ORIENTED_EDGE('',*,*,#527,.T.);
#735=ORIENTED_EDGE('',*,*,#526,.T.);
#736=ORIENTED_EDGE('',*,*,#461,.F.);
#737=ORIENTED_EDGE('',*,*,#521,.F.);
#738=ORIENTED_EDGE('',*,*,#527,.F.);
#739=ORIENTED_EDGE('',*,*,#520,.F.);
#740=ORIENTED_EDGE('',*,*,#524,.F.);
#741=ORIENTED_EDGE('',*,*,#525,.T.);
#742=ORIENTED_EDGE('',*,*,#466,.T.);
#743=ORIENTED_EDGE('',*,*,#469,.T.);
#744=ORIENTED_EDGE('',*,*,#472,.T.);
#745=ORIENTED_EDGE('',*,*,#475,.T.);
#746=ORIENTED_EDGE('',*,*,#477,.F.);
#747=ORIENTED_EDGE('',*,*,#480,.F.);
#748=ORIENTED_EDGE('',*,*,#518,.F.);
#749=ORIENTED_EDGE('',*,*,#519,.F.);
#750=CYLINDRICAL_SURFACE('',#808,6.48466109617097);
#751=CYLINDRICAL_SURFACE('',#811,6.48466109617097);
#752=CYLINDRICAL_SURFACE('',#814,6.48466109617097);
#753=CYLINDRICAL_SURFACE('',#820,6.48466109617097);
#754=CYLINDRICAL_SURFACE('',#823,6.48466109617097);
#755=CYLINDRICAL_SURFACE('',#828,6.48466109617097);
#756=CYLINDRICAL_SURFACE('',#835,6.48466109617097);
#757=CYLINDRICAL_SURFACE('',#840,1.5);
#758=CYLINDRICAL_SURFACE('',#844,1.5);
#759=CYLINDRICAL_SURFACE('',#848,1.5);
#760=CYLINDRICAL_SURFACE('',#852,1.5);
#761=CYLINDRICAL_SURFACE('',#867,1.14044585982385);
#762=CYLINDRICAL_SURFACE('',#870,1.20396338091393);
#763=CYLINDRICAL_SURFACE('',#873,1.07798770134255);
#764=CYLINDRICAL_SURFACE('',#876,1.1940488352326);
#765=ADVANCED_FACE('',(#59),#750,.F.);
#766=ADVANCED_FACE('',(#60),#751,.F.);
#767=ADVANCED_FACE('',(#61),#752,.F.);
#768=ADVANCED_FACE('',(#62),#33,.F.);
#769=ADVANCED_FACE('',(#63),#753,.F.);
#770=ADVANCED_FACE('',(#64),#754,.F.);
#771=ADVANCED_FACE('',(#65),#34,.F.);
#772=ADVANCED_FACE('',(#66),#755,.F.);
#773=ADVANCED_FACE('',(#67),#35,.F.);
#774=ADVANCED_FACE('',(#68),#756,.F.);
#775=ADVANCED_FACE('',(#69,#15,#16,#17,#18),#36,.T.);
#776=ADVANCED_FACE('',(#70,#19,#20,#21,#22,#23),#37,.T.);
#777=ADVANCED_FACE('',(#71),#757,.T.);
#778=ADVANCED_FACE('',(#72),#38,.T.);
#779=ADVANCED_FACE('',(#73),#758,.T.);
#780=ADVANCED_FACE('',(#74),#39,.T.);
#781=ADVANCED_FACE('',(#75),#759,.T.);
#782=ADVANCED_FACE('',(#76),#40,.T.);
#783=ADVANCED_FACE('',(#77),#760,.T.);
#784=ADVANCED_FACE('',(#78),#41,.T.);
#785=ADVANCED_FACE('',(#79),#42,.T.);
#786=ADVANCED_FACE('',(#80,#24,#25),#43,.T.);
#787=ADVANCED_FACE('',(#81),#44,.F.);
#788=ADVANCED_FACE('',(#82),#45,.F.);
#789=ADVANCED_FACE('',(#83),#46,.F.);
#790=ADVANCED_FACE('',(#84),#47,.F.);
#791=ADVANCED_FACE('',(#85),#48,.F.);
#792=ADVANCED_FACE('',(#86),#761,.F.);
#793=ADVANCED_FACE('',(#87),#49,.F.);
#794=ADVANCED_FACE('',(#88),#762,.F.);
#795=ADVANCED_FACE('',(#89),#50,.F.);
#796=ADVANCED_FACE('',(#90),#763,.F.);
#797=ADVANCED_FACE('',(#91),#51,.F.);
#798=ADVANCED_FACE('',(#92),#764,.F.);
#799=ADVANCED_FACE('',(#93),#52,.T.);
#800=ADVANCED_FACE('',(#94),#53,.T.);
#801=ADVANCED_FACE('',(#95),#54,.T.);
#802=ADVANCED_FACE('',(#96),#55,.T.);
#803=ADVANCED_FACE('',(#97,#26,#27),#56,.T.);
#804=ADVANCED_FACE('',(#98),#57,.T.);
#805=ADVANCED_FACE('',(#99,#28,#29,#30,#31,#32),#58,.F.);
#806=CLOSED_SHELL('',(#765,#766,#767,#768,#769,#770,#771,#772,#773,#774,
#775,#776,#777,#778,#779,#780,#781,#782,#783,#784,#785,#786,#787,#788,#789,
#790,#791,#792,#793,#794,#795,#796,#797,#798,#799,#800,#801,#802,#803,#804,
#805));
#807=AXIS2_PLACEMENT_3D('',#1116,#885,#886);
#808=AXIS2_PLACEMENT_3D('',#1117,#887,#888);
#809=AXIS2_PLACEMENT_3D('',#1119,#889,#890);
#810=AXIS2_PLACEMENT_3D('',#1122,#892,#893);
#811=AXIS2_PLACEMENT_3D('',#1123,#894,#895);
#812=AXIS2_PLACEMENT_3D('',#1125,#896,#897);
#813=AXIS2_PLACEMENT_3D('',#1128,#899,#900);
#814=AXIS2_PLACEMENT_3D('',#1129,#901,#902);
#815=AXIS2_PLACEMENT_3D('',#1131,#903,#904);
#816=AXIS2_PLACEMENT_3D('',#1134,#906,#907);
#817=AXIS2_PLACEMENT_3D('',#1135,#908,#909);
#818=AXIS2_PLACEMENT_3D('',#1140,#911,#912);
#819=AXIS2_PLACEMENT_3D('',#1143,#914,#915);
#820=AXIS2_PLACEMENT_3D('',#1144,#916,#917);
#821=AXIS2_PLACEMENT_3D('',#1148,#919,#920);
#822=AXIS2_PLACEMENT_3D('',#1150,#922,#923);
#823=AXIS2_PLACEMENT_3D('',#1151,#924,#925);
#824=AXIS2_PLACEMENT_3D('',#1153,#926,#927);
#825=AXIS2_PLACEMENT_3D('',#1156,#929,#930);
#826=AXIS2_PLACEMENT_3D('',#1157,#931,#932);
#827=AXIS2_PLACEMENT_3D('',#1161,#934,#935);
#828=AXIS2_PLACEMENT_3D('',#1162,#936,#937);
#829=AXIS2_PLACEMENT_3D('',#1164,#938,#939);
#830=AXIS2_PLACEMENT_3D('',#1167,#941,#942);
#831=AXIS2_PLACEMENT_3D('',#1168,#943,#944);
#832=AXIS2_PLACEMENT_3D('',#1169,#945,#946);
#833=AXIS2_PLACEMENT_3D('',#1174,#948,#949);
#834=AXIS2_PLACEMENT_3D('',#1177,#951,#952);
#835=AXIS2_PLACEMENT_3D('',#1178,#953,#954);
#836=AXIS2_PLACEMENT_3D('',#1182,#956,#957);
#837=AXIS2_PLACEMENT_3D('',#1184,#959,#960);
#838=AXIS2_PLACEMENT_3D('',#1185,#961,#962);
#839=AXIS2_PLACEMENT_3D('',#1197,#970,#971);
#840=AXIS2_PLACEMENT_3D('',#1208,#978,#979);
#841=AXIS2_PLACEMENT_3D('',#1210,#980,#981);
#842=AXIS2_PLACEMENT_3D('',#1213,#983,#984);
#843=AXIS2_PLACEMENT_3D('',#1214,#985,#986);
#844=AXIS2_PLACEMENT_3D('',#1215,#987,#988);
#845=AXIS2_PLACEMENT_3D('',#1217,#989,#990);
#846=AXIS2_PLACEMENT_3D('',#1220,#992,#993);
#847=AXIS2_PLACEMENT_3D('',#1221,#994,#995);
#848=AXIS2_PLACEMENT_3D('',#1222,#996,#997);
#849=AXIS2_PLACEMENT_3D('',#1224,#998,#999);
#850=AXIS2_PLACEMENT_3D('',#1227,#1001,#1002);
#851=AXIS2_PLACEMENT_3D('',#1228,#1003,#1004);
#852=AXIS2_PLACEMENT_3D('',#1229,#1005,#1006);
#853=AXIS2_PLACEMENT_3D('',#1231,#1007,#1008);
#854=AXIS2_PLACEMENT_3D('',#1234,#1010,#1011);
#855=AXIS2_PLACEMENT_3D('',#1235,#1012,#1013);
#856=AXIS2_PLACEMENT_3D('',#1236,#1014,#1015);
#857=AXIS2_PLACEMENT_3D('',#1242,#1019,#1020);
#858=AXIS2_PLACEMENT_3D('',#1250,#1024,#1025);
#859=AXIS2_PLACEMENT_3D('',#1254,#1027,#1028);
#860=AXIS2_PLACEMENT_3D('',#1258,#1030,#1031);
#861=AXIS2_PLACEMENT_3D('',#1261,#1033,#1034);
#862=AXIS2_PLACEMENT_3D('',#1270,#1039,#1040);
#863=AXIS2_PLACEMENT_3D('',#1276,#1044,#1045);
#864=AXIS2_PLACEMENT_3D('',#1280,#1048,#1049);
#865=AXIS2_PLACEMENT_3D('',#1284,#1052,#1053);
#866=AXIS2_PLACEMENT_3D('',#1286,#1055,#1056);
#867=AXIS2_PLACEMENT_3D('',#1292,#1060,#1061);
#868=AXIS2_PLACEMENT_3D('',#1294,#1062,#1063);
#869=AXIS2_PLACEMENT_3D('',#1296,#1065,#1066);
#870=AXIS2_PLACEMENT_3D('',#1300,#1069,#1070);
#871=AXIS2_PLACEMENT_3D('',#1302,#1071,#1072);
#872=AXIS2_PLACEMENT_3D('',#1304,#1074,#1075);
#873=AXIS2_PLACEMENT_3D('',#1308,#1078,#1079);
#874=AXIS2_PLACEMENT_3D('',#1310,#1080,#1081);
#875=AXIS2_PLACEMENT_3D('',#1312,#1083,#1084);
#876=AXIS2_PLACEMENT_3D('',#1316,#1087,#1088);
#877=AXIS2_PLACEMENT_3D('',#1317,#1089,#1090);
#878=AXIS2_PLACEMENT_3D('',#1318,#1091,#1092);
#879=AXIS2_PLACEMENT_3D('',#1322,#1095,#1096);
#880=AXIS2_PLACEMENT_3D('',#1324,#1098,#1099);
#881=AXIS2_PLACEMENT_3D('',#1330,#1103,#1104);
#882=AXIS2_PLACEMENT_3D('',#1334,#1107,#1108);
#883=AXIS2_PLACEMENT_3D('',#1338,#1111,#1112);
#884=AXIS2_PLACEMENT_3D('',#1340,#1114,#1115);
#885=DIRECTION('axis',(0.,0.,1.));
#886=DIRECTION('refdir',(1.,0.,0.));
#887=DIRECTION('center_axis',(0.,0.,1.));
#888=DIRECTION('ref_axis',(-1.,0.,0.));
#889=DIRECTION('center_axis',(0.,0.,1.));
#890=DIRECTION('ref_axis',(-1.,0.,0.));
#891=DIRECTION('',(0.,0.,1.));
#892=DIRECTION('center_axis',(0.,0.,-1.));
#893=DIRECTION('ref_axis',(-1.,0.,0.));
#894=DIRECTION('center_axis',(0.,0.,1.));
#895=DIRECTION('ref_axis',(-1.,0.,0.));
#896=DIRECTION('center_axis',(0.,0.,1.));
#897=DIRECTION('ref_axis',(-1.,0.,0.));
#898=DIRECTION('',(0.,0.,1.));
#899=DIRECTION('center_axis',(0.,0.,-1.));
#900=DIRECTION('ref_axis',(-1.,0.,0.));
#901=DIRECTION('center_axis',(0.,0.,1.));
#902=DIRECTION('ref_axis',(-1.,0.,0.));
#903=DIRECTION('center_axis',(0.,0.,1.));
#904=DIRECTION('ref_axis',(-1.,0.,0.));
#905=DIRECTION('',(0.,0.,1.));
#906=DIRECTION('center_axis',(0.,0.,-1.));
#907=DIRECTION('ref_axis',(-1.,0.,0.));
#908=DIRECTION('center_axis',(0.,0.,1.));
#909=DIRECTION('ref_axis',(1.,0.,0.));
#910=DIRECTION('',(-1.,0.,0.));
#911=DIRECTION('center_axis',(0.,0.,-1.));
#912=DIRECTION('ref_axis',(-1.,0.,0.));
#913=DIRECTION('',(1.,0.,0.));
#914=DIRECTION('center_axis',(0.,0.,-1.));
#915=DIRECTION('ref_axis',(-1.,0.,0.));
#916=DIRECTION('center_axis',(0.,0.,1.));
#917=DIRECTION('ref_axis',(-6.12323399573677E-17,1.,0.));
#918=DIRECTION('',(0.,0.,1.));
#919=DIRECTION('center_axis',(0.,0.,1.));
#920=DIRECTION('ref_axis',(-1.,0.,0.));
#921=DIRECTION('',(0.,0.,-1.));
#922=DIRECTION('center_axis',(0.,0.,-1.));
#923=DIRECTION('ref_axis',(-1.,0.,0.));
#924=DIRECTION('center_axis',(0.,0.,1.));
#925=DIRECTION('ref_axis',(-1.,0.,0.));
#926=DIRECTION('center_axis',(0.,0.,1.));
#927=DIRECTION('ref_axis',(-1.,0.,0.));
#928=DIRECTION('',(0.,0.,1.));
#929=DIRECTION('center_axis',(0.,0.,-1.));
#930=DIRECTION('ref_axis',(-1.,0.,0.));
#931=DIRECTION('center_axis',(0.,0.,1.));
#932=DIRECTION('ref_axis',(1.,0.,0.));
#933=DIRECTION('',(1.,0.,0.));
#934=DIRECTION('center_axis',(0.,0.,-1.));
#935=DIRECTION('ref_axis',(-1.,0.,0.));
#936=DIRECTION('center_axis',(0.,0.,1.));
#937=DIRECTION('ref_axis',(-1.,0.,0.));
#938=DIRECTION('center_axis',(0.,0.,1.));
#939=DIRECTION('ref_axis',(-1.,0.,0.));
#940=DIRECTION('',(0.,0.,1.));
#941=DIRECTION('center_axis',(0.,0.,-1.));
#942=DIRECTION('ref_axis',(-1.,0.,0.));
#943=DIRECTION('center_axis',(0.,0.,-1.));
#944=DIRECTION('ref_axis',(-1.,0.,0.));
#945=DIRECTION('center_axis',(0.,0.,1.));
#946=DIRECTION('ref_axis',(1.,0.,0.));
#947=DIRECTION('',(-1.,0.,0.));
#948=DIRECTION('center_axis',(0.,0.,-1.));
#949=DIRECTION('ref_axis',(-1.,0.,0.));
#950=DIRECTION('',(1.,0.,0.));
#951=DIRECTION('center_axis',(0.,0.,-1.));
#952=DIRECTION('ref_axis',(-1.,0.,0.));
#953=DIRECTION('center_axis',(0.,0.,1.));
#954=DIRECTION('ref_axis',(-6.12323399573677E-17,1.,0.));
#955=DIRECTION('',(0.,0.,1.));
#956=DIRECTION('center_axis',(0.,0.,1.));
#957=DIRECTION('ref_axis',(-1.,0.,0.));
#958=DIRECTION('',(0.,0.,-1.));
#959=DIRECTION('center_axis',(0.,0.,-1.));
#960=DIRECTION('ref_axis',(-1.,0.,0.));
#961=DIRECTION('center_axis',(0.,0.,1.));
#962=DIRECTION('ref_axis',(1.,0.,0.));
#963=DIRECTION('',(-1.,0.,0.));
#964=DIRECTION('',(0.,-1.,0.));
#965=DIRECTION('',(1.,0.,0.));
#966=DIRECTION('',(1.,0.,0.));
#967=DIRECTION('',(0.,1.,0.));
#968=DIRECTION('',(-1.,0.,0.));
#969=DIRECTION('',(-1.,0.,0.));
#970=DIRECTION('center_axis',(0.,0.,-1.));
#971=DIRECTION('ref_axis',(-1.,0.,0.));
#972=DIRECTION('',(-1.,0.,0.));
#973=DIRECTION('',(-1.,0.,0.));
#974=DIRECTION('',(0.,1.,0.));
#975=DIRECTION('',(1.,2.68195006677562E-31,0.));
#976=DIRECTION('',(0.,-1.,0.));
#977=DIRECTION('',(-1.,0.,0.));
#978=DIRECTION('center_axis',(0.,0.,1.));
#979=DIRECTION('ref_axis',(1.,0.,0.));
#980=DIRECTION('center_axis',(0.,0.,1.));
#981=DIRECTION('ref_axis',(1.,0.,0.));
#982=DIRECTION('',(0.,0.,-1.));
#983=DIRECTION('center_axis',(0.,0.,-1.));
#984=DIRECTION('ref_axis',(1.,0.,0.));
#985=DIRECTION('center_axis',(0.,0.,1.));
#986=DIRECTION('ref_axis',(1.,0.,0.));
#987=DIRECTION('center_axis',(0.,0.,1.));
#988=DIRECTION('ref_axis',(1.,0.,0.));
#989=DIRECTION('center_axis',(0.,0.,1.));
#990=DIRECTION('ref_axis',(1.,0.,0.));
#991=DIRECTION('',(0.,0.,-1.));
#992=DIRECTION('center_axis',(0.,0.,-1.));
#993=DIRECTION('ref_axis',(1.,0.,0.));
#994=DIRECTION('center_axis',(0.,0.,1.));
#995=DIRECTION('ref_axis',(1.,0.,0.));
#996=DIRECTION('center_axis',(0.,0.,1.));
#997=DIRECTION('ref_axis',(1.,0.,0.));
#998=DIRECTION('center_axis',(0.,0.,1.));
#999=DIRECTION('ref_axis',(1.,0.,0.));
#1000=DIRECTION('',(0.,0.,-1.));
#1001=DIRECTION('center_axis',(0.,0.,-1.));
#1002=DIRECTION('ref_axis',(1.,0.,0.));
#1003=DIRECTION('center_axis',(0.,0.,1.));
#1004=DIRECTION('ref_axis',(1.,0.,0.));
#1005=DIRECTION('center_axis',(0.,0.,1.));
#1006=DIRECTION('ref_axis',(1.,0.,0.));
#1007=DIRECTION('center_axis',(0.,0.,1.));
#1008=DIRECTION('ref_axis',(1.,0.,0.));
#1009=DIRECTION('',(0.,0.,-1.));
#1010=DIRECTION('center_axis',(0.,0.,-1.));
#1011=DIRECTION('ref_axis',(1.,0.,0.));
#1012=DIRECTION('center_axis',(0.,0.,1.));
#1013=DIRECTION('ref_axis',(1.,0.,0.));
#1014=DIRECTION('center_axis',(0.,-1.,0.));
#1015=DIRECTION('ref_axis',(-1.,0.,0.));
#1016=DIRECTION('',(0.,0.,-1.));
#1017=DIRECTION('',(-1.,0.,0.));
#1018=DIRECTION('',(0.,0.,-1.));
#1019=DIRECTION('center_axis',(-1.,0.,0.));
#1020=DIRECTION('ref_axis',(0.,1.,0.));
#1021=DIRECTION('',(0.,0.,-1.));
#1022=DIRECTION('',(0.,1.,0.));
#1023=DIRECTION('',(0.,-1.,0.));
#1024=DIRECTION('center_axis',(1.,0.,0.));
#1025=DIRECTION('ref_axis',(0.,0.117241379310345,0.993103448275862));
#1026=DIRECTION('',(0.,0.,-1.));
#1027=DIRECTION('center_axis',(1.,0.,0.));
#1028=DIRECTION('ref_axis',(0.,-0.999785917987934,-0.0206910172061258));
#1029=DIRECTION('',(0.,1.,0.));
#1030=DIRECTION('center_axis',(1.,0.,0.));
#1031=DIRECTION('ref_axis',(0.,-0.109157769489707,-0.994024437003453));
#1032=DIRECTION('',(0.,0.,1.));
#1033=DIRECTION('center_axis',(1.,0.,0.));
#1034=DIRECTION('ref_axis',(0.,0.993227257415716,0.116187844142387));
#1035=DIRECTION('',(0.,1.,0.));
#1036=DIRECTION('',(0.,0.,1.));
#1037=DIRECTION('',(0.,-1.,0.));
#1038=DIRECTION('',(0.,0.,-1.));
#1039=DIRECTION('center_axis',(0.,0.,1.));
#1040=DIRECTION('ref_axis',(0.,1.,0.));
#1041=DIRECTION('',(-1.,0.,0.));
#1042=DIRECTION('',(0.,1.,0.));
#1043=DIRECTION('',(-1.,0.,0.));
#1044=DIRECTION('center_axis',(0.,-1.,0.));
#1045=DIRECTION('ref_axis',(0.,0.,1.));
#1046=DIRECTION('',(0.,0.,1.));
#1047=DIRECTION('',(-1.,0.,0.));
#1048=DIRECTION('center_axis',(0.,0.,-1.));
#1049=DIRECTION('ref_axis',(0.,-1.,0.));
#1050=DIRECTION('',(0.,-1.,0.));
#1051=DIRECTION('',(-1.,0.,0.));
#1052=DIRECTION('center_axis',(0.,1.,0.));
#1053=DIRECTION('ref_axis',(0.,0.,-1.));
#1054=DIRECTION('',(0.,0.,-1.));
#1055=DIRECTION('center_axis',(0.,0.,-1.));
#1056=DIRECTION('ref_axis',(0.,-1.,0.));
#1057=DIRECTION('',(-1.,0.,0.));
#1058=DIRECTION('',(0.,-1.,0.));
#1059=DIRECTION('',(-1.,0.,0.));
#1060=DIRECTION('center_axis',(-1.,0.,0.));
#1061=DIRECTION('ref_axis',(0.,-0.109157769489707,-0.994024437003453));
#1062=DIRECTION('center_axis',(-1.,0.,0.));
#1063=DIRECTION('ref_axis',(0.,-0.109157769489707,-0.994024437003453));
#1064=DIRECTION('',(-1.,0.,0.));
#1065=DIRECTION('center_axis',(0.,1.,0.));
#1066=DIRECTION('ref_axis',(0.,0.,-1.));
#1067=DIRECTION('',(0.,0.,-1.));
#1068=DIRECTION('',(-1.,0.,0.));
#1069=DIRECTION('center_axis',(-1.,0.,0.));
#1070=DIRECTION('ref_axis',(0.,0.993227257415716,0.116187844142387));
#1071=DIRECTION('center_axis',(-1.,0.,0.));
#1072=DIRECTION('ref_axis',(0.,0.993227257415716,0.116187844142387));
#1073=DIRECTION('',(-1.,0.,0.));
#1074=DIRECTION('center_axis',(0.,0.,1.));
#1075=DIRECTION('ref_axis',(0.,1.,0.));
#1076=DIRECTION('',(0.,1.,0.));
#1077=DIRECTION('',(-1.,0.,0.));
#1078=DIRECTION('center_axis',(-1.,0.,0.));
#1079=DIRECTION('ref_axis',(0.,0.117241379310345,0.993103448275862));
#1080=DIRECTION('center_axis',(-1.,0.,0.));
#1081=DIRECTION('ref_axis',(0.,0.117241379310345,0.993103448275862));
#1082=DIRECTION('',(-1.,0.,0.));
#1083=DIRECTION('center_axis',(0.,-1.,0.));
#1084=DIRECTION('ref_axis',(0.,0.,1.));
#1085=DIRECTION('',(0.,0.,1.));
#1086=DIRECTION('',(-1.,0.,0.));
#1087=DIRECTION('center_axis',(-1.,0.,0.));
#1088=DIRECTION('ref_axis',(0.,-0.999785917987934,-0.0206910172061258));
#1089=DIRECTION('center_axis',(-1.,0.,0.));
#1090=DIRECTION('ref_axis',(0.,-0.999785917987934,-0.0206910172061258));
#1091=DIRECTION('center_axis',(0.,1.,0.));
#1092=DIRECTION('ref_axis',(1.,0.,0.));
#1093=DIRECTION('',(0.,0.,-1.));
#1094=DIRECTION('',(1.,0.,0.));
#1095=DIRECTION('center_axis',(1.,0.,0.));
#1096=DIRECTION('ref_axis',(0.,-1.,0.));
#1097=DIRECTION('',(0.,-1.,0.));
#1098=DIRECTION('center_axis',(-1.,0.,0.));
#1099=DIRECTION('ref_axis',(0.,1.,0.));
#1100=DIRECTION('',(0.,1.,0.));
#1101=DIRECTION('',(0.,0.,-1.));
#1102=DIRECTION('',(0.,0.,-1.));
#1103=DIRECTION('center_axis',(0.,-1.,0.));
#1104=DIRECTION('ref_axis',(-1.,0.,0.));
#1105=DIRECTION('',(0.,0.,-1.));
#1106=DIRECTION('',(-1.,0.,0.));
#1107=DIRECTION('center_axis',(1.,0.,0.));
#1108=DIRECTION('ref_axis',(0.,-1.,0.));
#1109=DIRECTION('',(0.,1.,0.));
#1110=DIRECTION('',(0.,0.,-1.));
#1111=DIRECTION('center_axis',(-2.68195006677562E-31,1.,0.));
#1112=DIRECTION('ref_axis',(1.,2.68195006677562E-31,0.));
#1113=DIRECTION('',(1.,2.68195006677562E-31,0.));
#1114=DIRECTION('center_axis',(0.,0.,-1.));
#1115=DIRECTION('ref_axis',(-1.,0.,0.));
#1116=CARTESIAN_POINT('',(0.,0.,0.));
#1117=CARTESIAN_POINT('Origin',(39.8474672911034,60.4174980182798,-40.3995220525484));
#1118=CARTESIAN_POINT('',(46.3321283872743,60.4174980182798,-40.3995220525484));
#1119=CARTESIAN_POINT('Origin',(39.8474672911034,60.4174980182798,-40.3995220525484));
#1120=CARTESIAN_POINT('',(46.3321283872743,60.4174980182798,-35.3995220525484));
#1121=CARTESIAN_POINT('',(46.3321283872743,60.4174980182798,-40.3995220525484));
#1122=CARTESIAN_POINT('Origin',(39.8474672911034,60.4174980182798,-35.3995220525484));
#1123=CARTESIAN_POINT('Origin',(-39.310664344262,60.4174980182798,-40.3995220525484));
#1124=CARTESIAN_POINT('',(-32.826003248091,60.4174980182798,-40.3995220525484));
#1125=CARTESIAN_POINT('Origin',(-39.310664344262,60.4174980182798,-40.3995220525484));
#1126=CARTESIAN_POINT('',(-32.826003248091,60.4174980182798,-35.3995220525484));
#1127=CARTESIAN_POINT('',(-32.826003248091,60.4174980182798,-40.3995220525484));
#1128=CARTESIAN_POINT('Origin',(-39.310664344262,60.4174980182798,-35.3995220525484));
#1129=CARTESIAN_POINT('Origin',(28.2550273061328,88.4041238509919,-40.3995220525484));
#1130=CARTESIAN_POINT('',(34.7396884023038,88.4041238509919,-40.3995220525484));
#1131=CARTESIAN_POINT('Origin',(28.2550273061328,88.4041238509919,-40.3995220525484));
#1132=CARTESIAN_POINT('',(34.7396884023038,88.4041238509919,-35.3995220525484));
#1133=CARTESIAN_POINT('',(34.7396884023038,88.4041238509919,-40.3995220525484));
#1134=CARTESIAN_POINT('Origin',(28.2550273061328,88.4041238509919,-35.3995220525484));
#1135=CARTESIAN_POINT('Origin',(0.26840147342071,68.2406124660667,-35.3995220525484));
#1136=CARTESIAN_POINT('',(34.2513940941714,34.8995590582799,-35.3995220525484));
#1137=CARTESIAN_POINT('',(22.2586605180943,34.8995590582799,-35.3995220525484));
#1138=CARTESIAN_POINT('',(-33.031661758903,34.8995590582799,-35.3995220525484));
#1139=CARTESIAN_POINT('',(34.2668232066626,30.,-35.3995220525484));
#1140=CARTESIAN_POINT('Origin',(28.2550273061328,32.4308721855677,-35.3995220525484));
#1141=CARTESIAN_POINT('',(22.243231405603,30.,-35.3995220525484));
#1142=CARTESIAN_POINT('',(35.2466092600128,30.,-35.3995220525484));
#1143=CARTESIAN_POINT('Origin',(28.2550273061328,32.4308721855677,-35.3995220525484));
#1144=CARTESIAN_POINT('Origin',(28.2550273061328,32.4308721855677,-40.3995220525484));
#1145=CARTESIAN_POINT('',(22.243231405603,30.,-40.3995220525484));
#1146=CARTESIAN_POINT('',(22.243231405603,30.,-40.3995220525484));
#1147=CARTESIAN_POINT('',(34.2668232066626,30.,-40.3995220525484));
#1148=CARTESIAN_POINT('Origin',(28.2550273061328,32.4308721855677,-40.3995220525484));
#1149=CARTESIAN_POINT('',(34.2668232066626,30.,-40.3995220525484));
#1150=CARTESIAN_POINT('Origin',(28.2550273061328,32.4308721855677,-35.3995220525484));
#1151=CARTESIAN_POINT('Origin',(-27.7182243592914,88.4041238509919,-40.3995220525484));
#1152=CARTESIAN_POINT('',(-21.2335632631204,88.4041238509919,-40.3995220525484));
#1153=CARTESIAN_POINT('Origin',(-27.7182243592914,88.4041238509919,-40.3995220525484));
#1154=CARTESIAN_POINT('',(-21.2335632631204,88.4041238509919,-35.3995220525484));
#1155=CARTESIAN_POINT('',(-21.2335632631204,88.4041238509919,-40.3995220525484));
#1156=CARTESIAN_POINT('Origin',(-27.7182243592914,88.4041238509919,-35.3995220525484));
#1157=CARTESIAN_POINT('Origin',(0.26840147342071,68.2406124660667,-35.3995220525484));
#1158=CARTESIAN_POINT('',(-4.42925081269478,104.466786708588,-35.3995220525484));
#1159=CARTESIAN_POINT('',(4.96605375953619,104.466786708588,-35.3995220525484));
#1160=CARTESIAN_POINT('',(31.5410244125898,104.466786708588,-35.3995220525484));
#1161=CARTESIAN_POINT('Origin',(0.26840147342071,99.9965638359625,-35.3995220525484));
#1162=CARTESIAN_POINT('Origin',(0.26840147342071,99.9965638359625,-40.3995220525484));
#1163=CARTESIAN_POINT('',(6.75306256959168,99.9965638359625,-40.3995220525484));
#1164=CARTESIAN_POINT('Origin',(0.26840147342071,99.9965638359625,-40.3995220525484));
#1165=CARTESIAN_POINT('',(6.75306256959168,99.9965638359625,-35.3995220525484));
#1166=CARTESIAN_POINT('',(6.75306256959168,99.9965638359625,-40.3995220525484));
#1167=CARTESIAN_POINT('Origin',(0.26840147342071,99.9965638359625,-35.3995220525484));
#1168=CARTESIAN_POINT('Origin',(0.26840147342071,99.9965638359625,-35.3995220525484));
#1169=CARTESIAN_POINT('Origin',(0.26840147342071,68.2406124660667,-35.3995220525484));
#1170=CARTESIAN_POINT('',(-21.7218575712528,34.8995590582799,-35.3995220525484));
#1171=CARTESIAN_POINT('',(-33.7145911473299,34.8995590582799,-35.3995220525484));
#1172=CARTESIAN_POINT('',(-33.031661758903,34.8995590582799,-35.3995220525484));
#1173=CARTESIAN_POINT('',(-21.7064284587616,30.,-35.3995220525484));
#1174=CARTESIAN_POINT('Origin',(-27.7182243592914,32.4308721855677,-35.3995220525484));
#1175=CARTESIAN_POINT('',(-33.7300202598212,30.,-35.3995220525484));
#1176=CARTESIAN_POINT('',(35.2466092600128,30.,-35.3995220525484));
#1177=CARTESIAN_POINT('Origin',(-27.7182243592914,32.4308721855677,-35.3995220525484));
#1178=CARTESIAN_POINT('Origin',(-27.7182243592914,32.4308721855677,-40.3995220525484));
#1179=CARTESIAN_POINT('',(-33.7300202598212,30.,-40.3995220525484));
#1180=CARTESIAN_POINT('',(-33.7300202598212,30.,-40.3995220525484));
#1181=CARTESIAN_POINT('',(-21.7064284587616,30.,-40.3995220525484));
#1182=CARTESIAN_POINT('Origin',(-27.7182243592914,32.4308721855677,-40.3995220525484));
#1183=CARTESIAN_POINT('',(-21.7064284587616,30.,-40.3995220525484));
#1184=CARTESIAN_POINT('Origin',(-27.7182243592914,32.4308721855677,-35.3995220525484));
#1185=CARTESIAN_POINT('Origin',(-0.745318673156605,69.6831728834341,-35.3995220525484));
#1186=CARTESIAN_POINT('',(63.8273674983361,34.8995590582799,-35.3995220525484));
#1187=CARTESIAN_POINT('',(-33.031661758903,34.8995590582799,-35.3995220525484));
#1188=CARTESIAN_POINT('',(63.8273674983361,104.466786708588,-35.3995220525484));
#1189=CARTESIAN_POINT('',(63.8273674983361,52.291365970857,-35.3995220525484));
#1190=CARTESIAN_POINT('',(31.5410244125898,104.466786708588,-35.3995220525484));
#1191=CARTESIAN_POINT('',(-65.3180048446494,104.466786708588,-35.3995220525484));
#1192=CARTESIAN_POINT('',(31.5410244125898,104.466786708588,-35.3995220525484));
#1193=CARTESIAN_POINT('',(-65.3180048446494,34.8995590582799,-35.3995220525484));
#1194=CARTESIAN_POINT('',(-65.3180048446494,87.0749797960112,-35.3995220525484));
#1195=CARTESIAN_POINT('',(-33.031661758903,34.8995590582799,-35.3995220525484));
#1196=CARTESIAN_POINT('',(-33.031661758903,34.8995590582799,-35.3995220525484));
#1197=CARTESIAN_POINT('Origin',(70.2248170466049,30.,-40.3995220525484));
#1198=CARTESIAN_POINT('',(70.2248170466049,30.,-40.3995220525484));
#1199=CARTESIAN_POINT('',(-69.6435404300692,30.,-40.3995220525484));
#1200=CARTESIAN_POINT('',(70.2248170466049,30.,-40.3995220525484));
#1201=CARTESIAN_POINT('',(-69.6435404300692,109.548341051955,-40.3995220525485));
#1202=CARTESIAN_POINT('',(-69.6435404300692,30.,-40.3995220525484));
#1203=CARTESIAN_POINT('',(70.2248170466049,109.548341051955,-40.3995220525484));
#1204=CARTESIAN_POINT('',(0.290638308267837,109.548341051955,-40.3995220525484));
#1205=CARTESIAN_POINT('',(70.2248170466049,30.,-40.3995220525484));
#1206=CARTESIAN_POINT('',(70.2248170466049,30.,-40.3995220525484));
#1207=CARTESIAN_POINT('',(70.2248170466049,30.,-40.3995220525484));
#1208=CARTESIAN_POINT('Origin',(-67.4563949977185,106.990590653026,39.6004779474516));
#1209=CARTESIAN_POINT('',(-68.9563949977185,106.990590653026,42.6004779474516));
#1210=CARTESIAN_POINT('Origin',(-67.4563949977185,106.990590653026,42.6004779474516));
#1211=CARTESIAN_POINT('',(-68.9563949977185,106.990590653026,39.6004779474516));
#1212=CARTESIAN_POINT('',(-68.9563949977185,106.990590653026,39.6004779474516));
#1213=CARTESIAN_POINT('Origin',(-67.4563949977185,106.990590653026,39.6004779474516));
#1214=CARTESIAN_POINT('Origin',(-67.4563949977185,106.990590653026,42.6004779474516));
#1215=CARTESIAN_POINT('Origin',(67.5436050022815,106.990590653026,39.6004779474516));
#1216=CARTESIAN_POINT('',(66.0436050022815,106.990590653026,42.6004779474516));
#1217=CARTESIAN_POINT('Origin',(67.5436050022815,106.990590653026,42.6004779474516));
#1218=CARTESIAN_POINT('',(66.0436050022815,106.990590653026,39.6004779474516));
#1219=CARTESIAN_POINT('',(66.0436050022815,106.990590653026,39.6004779474516));
#1220=CARTESIAN_POINT('Origin',(67.5436050022815,106.990590653026,39.6004779474516));
#1221=CARTESIAN_POINT('Origin',(67.5436050022815,106.990590653026,42.6004779474516));
#1222=CARTESIAN_POINT('Origin',(-67.4563949977185,32.9905906530262,39.6004779474516));
#1223=CARTESIAN_POINT('',(-68.9563949977185,32.9905906530262,42.6004779474516));
#1224=CARTESIAN_POINT('Origin',(-67.4563949977185,32.9905906530262,42.6004779474516));
#1225=CARTESIAN_POINT('',(-68.9563949977185,32.9905906530262,39.6004779474516));
#1226=CARTESIAN_POINT('',(-68.9563949977185,32.9905906530262,39.6004779474516));
#1227=CARTESIAN_POINT('Origin',(-67.4563949977185,32.9905906530262,39.6004779474516));
#1228=CARTESIAN_POINT('Origin',(-67.4563949977185,32.9905906530262,42.6004779474516));
#1229=CARTESIAN_POINT('Origin',(67.5436050022815,32.9905906530262,39.6004779474516));
#1230=CARTESIAN_POINT('',(66.0436050022815,32.9905906530262,42.6004779474516));
#1231=CARTESIAN_POINT('Origin',(67.5436050022815,32.9905906530262,42.6004779474516));
#1232=CARTESIAN_POINT('',(66.0436050022815,32.9905906530262,39.6004779474516));
#1233=CARTESIAN_POINT('',(66.0436050022815,32.9905906530262,39.6004779474516));
#1234=CARTESIAN_POINT('Origin',(67.5436050022815,32.9905906530262,39.6004779474516));
#1235=CARTESIAN_POINT('Origin',(67.5436050022815,32.9905906530262,42.6004779474516));
#1236=CARTESIAN_POINT('Origin',(63.8273674983362,104.466786708588,39.6004779474516));
#1237=CARTESIAN_POINT('',(63.8273674983361,104.466786708588,39.6004779474516));
#1238=CARTESIAN_POINT('',(63.8273674983361,104.466786708588,39.6004779474516));
#1239=CARTESIAN_POINT('',(-65.3180048446494,104.466786708588,39.6004779474516));
#1240=CARTESIAN_POINT('',(4.95340610097776,104.466786708588,39.6004779474516));
#1241=CARTESIAN_POINT('',(-65.3180048446494,104.466786708588,39.6004779474516));
#1242=CARTESIAN_POINT('Origin',(63.8273674983361,34.8995590582799,39.6004779474516));
#1243=CARTESIAN_POINT('',(63.8273674983361,34.8995590582799,39.6004779474516));
#1244=CARTESIAN_POINT('',(63.8273674983361,34.8995590582799,39.6004779474516));
#1245=CARTESIAN_POINT('',(63.8273674983361,32.4497795291399,39.6004779474516));
#1246=CARTESIAN_POINT('',(63.8273674983361,38.2076433046256,9.54534364319142));
#1247=CARTESIAN_POINT('',(63.8273674983361,37.3880009317083,9.54534364319142));
#1248=CARTESIAN_POINT('',(63.8273674983361,36.1437799949941,9.54534364319142));
#1249=CARTESIAN_POINT('',(63.8273674983361,36.1836284653808,8.47479033978917));
#1250=CARTESIAN_POINT('Origin',(63.8273674983361,37.2616161667233,8.47479033978917));
#1251=CARTESIAN_POINT('',(63.8273674983361,36.1836284653808,1.7571146413514));
#1252=CARTESIAN_POINT('',(63.8273674983361,36.1836284653808,20.6787962944015));
#1253=CARTESIAN_POINT('',(63.8273674983361,37.3774216762362,0.587771891113549));
#1254=CARTESIAN_POINT('Origin',(63.8273674983361,37.3774216762362,1.78182072634615));
#1255=CARTESIAN_POINT('',(63.8273674983361,38.1385181653737,0.58777189111355));
#1256=CARTESIAN_POINT('',(63.8273674983361,36.5190386118268,0.587771891113551));
#1257=CARTESIAN_POINT('',(63.8273674983361,39.4034525514797,1.72140294485787));
#1258=CARTESIAN_POINT('Origin',(63.8273674983361,38.2630066916559,1.72140294485787));
#1259=CARTESIAN_POINT('',(63.8273674983361,39.4034525514797,8.48126617193226));
#1260=CARTESIAN_POINT('',(63.8273674983361,39.4034525514797,24.0408720596919));
#1261=CARTESIAN_POINT('Origin',(63.8273674983361,38.2076433046256,8.34138026227749));
#1262=CARTESIAN_POINT('',(63.8273674983361,34.9232883134719,28.3327158119285));
#1263=CARTESIAN_POINT('',(63.8273674983361,39.535888358559,28.3327158119285));
#1264=CARTESIAN_POINT('',(63.8273674983361,37.2177237084195,28.3327158119285));
#1265=CARTESIAN_POINT('',(63.8273674983361,39.535888358559,37.1057002114079));
#1266=CARTESIAN_POINT('',(63.8273674983361,39.535888358559,38.3530890794297));
#1267=CARTESIAN_POINT('',(63.8273674983361,34.9232883134719,37.1057002114079));
#1268=CARTESIAN_POINT('',(63.8273674983361,34.9114236858759,37.1057002114079));
#1269=CARTESIAN_POINT('',(63.8273674983361,34.9232883134719,33.96659687969));
#1270=CARTESIAN_POINT('Origin',(70.2248170466049,34.9232883134719,37.1057002114079));
#1271=CARTESIAN_POINT('',(70.2248170466049,39.535888358559,37.1057002114079));
#1272=CARTESIAN_POINT('',(70.2248170466049,39.535888358559,37.1057002114079));
#1273=CARTESIAN_POINT('',(70.2248170466049,34.9232883134719,37.1057002114079));
#1274=CARTESIAN_POINT('',(70.2248170466049,72.2358146827135,37.1057002114079));
#1275=CARTESIAN_POINT('',(70.2248170466049,34.9232883134719,37.1057002114079));
#1276=CARTESIAN_POINT('Origin',(70.2248170466049,34.9232883134719,28.3327158119285));
#1277=CARTESIAN_POINT('',(70.2248170466049,34.9232883134719,28.3327158119285));
#1278=CARTESIAN_POINT('',(70.2248170466049,34.9232883134719,33.96659687969));
#1279=CARTESIAN_POINT('',(70.2248170466049,34.9232883134719,28.3327158119285));
#1280=CARTESIAN_POINT('Origin',(70.2248170466049,39.535888358559,28.3327158119285));
#1281=CARTESIAN_POINT('',(70.2248170466049,39.535888358559,28.3327158119285));
#1282=CARTESIAN_POINT('',(70.2248170466049,74.542114705257,28.3327158119285));
#1283=CARTESIAN_POINT('',(70.2248170466049,39.535888358559,28.3327158119285));
#1284=CARTESIAN_POINT('Origin',(70.2248170466049,39.535888358559,37.1057002114079));
#1285=CARTESIAN_POINT('',(70.2248170466049,39.535888358559,38.3530890794297));
#1286=CARTESIAN_POINT('Origin',(70.2248170466049,38.1385181653737,0.58777189111355));
#1287=CARTESIAN_POINT('',(70.2248170466049,37.3774216762362,0.587771891113549));
#1288=CARTESIAN_POINT('',(70.2248170466049,37.3774216762362,0.587771891113549));
#1289=CARTESIAN_POINT('',(70.2248170466049,38.1385181653737,0.58777189111355));
#1290=CARTESIAN_POINT('',(70.2248170466049,73.8434296086644,0.587771891113551));
#1291=CARTESIAN_POINT('',(70.2248170466049,38.1385181653737,0.58777189111355));
#1292=CARTESIAN_POINT('Origin',(70.2248170466049,38.2630066916559,1.72140294485787));
#1293=CARTESIAN_POINT('',(70.2248170466049,39.4034525514797,1.72140294485787));
#1294=CARTESIAN_POINT('Origin',(70.2248170466049,38.2630066916559,1.72140294485787));
#1295=CARTESIAN_POINT('',(70.2248170466049,39.4034525514797,1.72140294485787));
#1296=CARTESIAN_POINT('Origin',(70.2248170466049,39.4034525514797,8.48126617193226));
#1297=CARTESIAN_POINT('',(70.2248170466049,39.4034525514797,8.48126617193226));
#1298=CARTESIAN_POINT('',(70.2248170466049,39.4034525514797,24.0408720596919));
#1299=CARTESIAN_POINT('',(70.2248170466049,39.4034525514797,8.48126617193226));
#1300=CARTESIAN_POINT('Origin',(70.2248170466049,38.2076433046256,8.34138026227749));
#1301=CARTESIAN_POINT('',(70.2248170466049,38.2076433046256,9.54534364319142));
#1302=CARTESIAN_POINT('Origin',(70.2248170466049,38.2076433046256,8.34138026227749));
#1303=CARTESIAN_POINT('',(70.2248170466049,38.2076433046256,9.54534364319142));
#1304=CARTESIAN_POINT('Origin',(70.2248170466049,37.3880009317083,9.54534364319142));
#1305=CARTESIAN_POINT('',(70.2248170466049,37.3880009317083,9.54534364319142));
#1306=CARTESIAN_POINT('',(70.2248170466049,73.4681709918317,9.54534364319142));
#1307=CARTESIAN_POINT('',(70.2248170466049,37.3880009317083,9.54534364319142));
#1308=CARTESIAN_POINT('Origin',(70.2248170466049,37.2616161667233,8.47479033978917));
#1309=CARTESIAN_POINT('',(70.2248170466049,36.1836284653808,8.47479033978917));
#1310=CARTESIAN_POINT('Origin',(70.2248170466049,37.2616161667233,8.47479033978917));
#1311=CARTESIAN_POINT('',(70.2248170466049,36.1836284653808,8.47479033978917));
#1312=CARTESIAN_POINT('Origin',(70.2248170466049,36.1836284653808,1.7571146413514));
#1313=CARTESIAN_POINT('',(70.2248170466049,36.1836284653808,1.7571146413514));
#1314=CARTESIAN_POINT('',(70.2248170466049,36.1836284653808,20.6787962944015));
#1315=CARTESIAN_POINT('',(70.2248170466049,36.1836284653808,1.7571146413514));
#1316=CARTESIAN_POINT('Origin',(70.2248170466049,37.3774216762362,1.78182072634615));
#1317=CARTESIAN_POINT('Origin',(70.2248170466049,37.3774216762362,1.78182072634615));
#1318=CARTESIAN_POINT('Origin',(-65.3180048446494,34.8995590582799,39.6004779474516));
#1319=CARTESIAN_POINT('',(-65.3180048446494,34.8995590582799,39.6004779474516));
#1320=CARTESIAN_POINT('',(-65.3180048446494,34.8995590582799,39.6004779474516));
#1321=CARTESIAN_POINT('',(66.5980922724705,34.8995590582799,39.6004779474516));
#1322=CARTESIAN_POINT('Origin',(-65.3180048446494,104.466786708588,39.6004779474516));
#1323=CARTESIAN_POINT('',(-65.3180048446494,67.2333933542942,39.6004779474516));
#1324=CARTESIAN_POINT('Origin',(-69.6435404300692,30.,39.6004779474516));
#1325=CARTESIAN_POINT('',(-69.6435404300692,30.,39.6004779474516));
#1326=CARTESIAN_POINT('',(-69.6435404300692,109.548341051955,39.6004779474516));
#1327=CARTESIAN_POINT('',(-69.6435404300692,30.,39.6004779474516));
#1328=CARTESIAN_POINT('',(-69.6435404300692,109.548341051955,39.6004779474516));
#1329=CARTESIAN_POINT('',(-69.6435404300692,30.,39.6004779474516));
#1330=CARTESIAN_POINT('Origin',(70.2248170466049,30.,39.6004779474516));
#1331=CARTESIAN_POINT('',(70.2248170466049,30.,39.6004779474516));
#1332=CARTESIAN_POINT('',(70.2248170466049,30.,39.6004779474516));
#1333=CARTESIAN_POINT('',(70.2248170466049,30.,39.6004779474516));
#1334=CARTESIAN_POINT('Origin',(70.2248170466049,109.548341051955,39.6004779474516));
#1335=CARTESIAN_POINT('',(70.2248170466049,109.548341051955,39.6004779474516));
#1336=CARTESIAN_POINT('',(70.2248170466049,30.,39.6004779474516));
#1337=CARTESIAN_POINT('',(70.2248170466049,109.548341051955,39.6004779474516));
#1338=CARTESIAN_POINT('Origin',(-69.6435404300692,109.548341051955,39.6004779474516));
#1339=CARTESIAN_POINT('',(0.290638308267837,109.548341051955,39.6004779474516));
#1340=CARTESIAN_POINT('Origin',(70.2248170466049,30.,39.6004779474516));
#1341=UNCERTAINTY_MEASURE_WITH_UNIT(LENGTH_MEASURE(0.01),#1345,
'DISTANCE_ACCURACY_VALUE',
'Maximum model space distance between geometric entities at asserted c
onnectivities');
#1342=UNCERTAINTY_MEASURE_WITH_UNIT(LENGTH_MEASURE(0.01),#1345,
'DISTANCE_ACCURACY_VALUE',
'Maximum model space distance between geometric entities at asserted c
onnectivities');
#1343=(
GEOMETRIC_REPRESENTATION_CONTEXT(3)
GLOBAL_UNCERTAINTY_ASSIGNED_CONTEXT((#1341))
GLOBAL_UNIT_ASSIGNED_CONTEXT((#1345,#1346,#1347))
REPRESENTATION_CONTEXT('','3D')
);
#1344=(
GEOMETRIC_REPRESENTATION_CONTEXT(3)
GLOBAL_UNCERTAINTY_ASSIGNED_CONTEXT((#1342))
GLOBAL_UNIT_ASSIGNED_CONTEXT((#1345,#1346,#1347))
REPRESENTATION_CONTEXT('','3D')
);
#1345=(
LENGTH_UNIT()
NAMED_UNIT(*)
SI_UNIT(.MILLI.,.METRE.)
);
#1346=(
NAMED_UNIT(*)
PLANE_ANGLE_UNIT()
SI_UNIT($,.RADIAN.)
);
#1347=(
NAMED_UNIT(*)
SI_UNIT($,.STERADIAN.)
SOLID_ANGLE_UNIT()
);
#1348=SHAPE_DEFINITION_REPRESENTATION(#1349,#1350);
#1349=PRODUCT_DEFINITION_SHAPE('',$,#1352);
#1350=SHAPE_REPRESENTATION('',(#807),#1343);
#1351=PRODUCT_DEFINITION_CONTEXT('part definition',#1356,'design');
#1352=PRODUCT_DEFINITION('HackDeck','HackDeck v2',#1353,#1351);
#1353=PRODUCT_DEFINITION_FORMATION('',$,#1358);
#1354=PRODUCT_RELATED_PRODUCT_CATEGORY('HackDeck v2','HackDeck v2',(#1358));
#1355=APPLICATION_PROTOCOL_DEFINITION('international standard',
'automotive_design',2009,#1356);
#1356=APPLICATION_CONTEXT(
'Core Data for Automotive Mechanical Design Process');
#1357=PRODUCT_CONTEXT('part definition',#1356,'mechanical');
#1358=PRODUCT('HackDeck','HackDeck v2',$,(#1357));
#1359=PRESENTATION_STYLE_ASSIGNMENT((#1365));
#1360=PRESENTATION_STYLE_ASSIGNMENT((#1366));
#1361=PRESENTATION_STYLE_ASSIGNMENT((#1367));
#1362=PRESENTATION_STYLE_ASSIGNMENT((#1368));
#1363=PRESENTATION_STYLE_ASSIGNMENT((#1369));
#1364=PRESENTATION_STYLE_ASSIGNMENT((#1370));
#1365=SURFACE_STYLE_USAGE(.BOTH.,#1371);
#1366=SURFACE_STYLE_USAGE(.BOTH.,#1372);
#1367=SURFACE_STYLE_USAGE(.BOTH.,#1373);
#1368=SURFACE_STYLE_USAGE(.BOTH.,#1374);
#1369=SURFACE_STYLE_USAGE(.BOTH.,#1375);
#1370=SURFACE_STYLE_USAGE(.BOTH.,#1376);
#1371=SURFACE_SIDE_STYLE('',(#1377));
#1372=SURFACE_SIDE_STYLE('',(#1378));
#1373=SURFACE_SIDE_STYLE('',(#1379));
#1374=SURFACE_SIDE_STYLE('',(#1380));
#1375=SURFACE_SIDE_STYLE('',(#1381));
#1376=SURFACE_SIDE_STYLE('',(#1382));
#1377=SURFACE_STYLE_FILL_AREA(#1383);
#1378=SURFACE_STYLE_FILL_AREA(#1384);
#1379=SURFACE_STYLE_FILL_AREA(#1385);
#1380=SURFACE_STYLE_FILL_AREA(#1386);
#1381=SURFACE_STYLE_FILL_AREA(#1387);
#1382=SURFACE_STYLE_FILL_AREA(#1388);
#1383=FILL_AREA_STYLE('Opaque(245,245,246)',(#1389));
#1384=FILL_AREA_STYLE('Opaque(230,221,197)',(#1390));
#1385=FILL_AREA_STYLE('Opaque(255,178,15)',(#1391));
#1386=FILL_AREA_STYLE('Opaque(202,209,238)',(#1392));
#1387=FILL_AREA_STYLE('Opaque(64,64,64)',(#1393));
#1388=FILL_AREA_STYLE('ABS (White)',(#1394));
#1389=FILL_AREA_STYLE_COLOUR('Opaque(245,245,246)',#1395);
#1390=FILL_AREA_STYLE_COLOUR('Opaque(230,221,197)',#1396);
#1391=FILL_AREA_STYLE_COLOUR('Opaque(255,178,15)',#1397);
#1392=FILL_AREA_STYLE_COLOUR('Opaque(202,209,238)',#1398);
#1393=FILL_AREA_STYLE_COLOUR('Opaque(64,64,64)',#1399);
#1394=FILL_AREA_STYLE_COLOUR('ABS (White)',#1400);
#1395=COLOUR_RGB('Opaque(245,245,246)',0.96078431372549,0.96078431372549,
0.964705882352941);
#1396=COLOUR_RGB('Opaque(230,221,197)',0.901960784313726,0.866666666666667,
0.772549019607843);
#1397=COLOUR_RGB('Opaque(255,178,15)',1.,0.698039215686274,0.0588235294117647);
#1398=COLOUR_RGB('Opaque(202,209,238)',0.792156862745098,0.819607843137255,
0.933333333333333);
#1399=COLOUR_RGB('Opaque(64,64,64)',0.250980392156863,0.250980392156863,
0.250980392156863);
#1400=COLOUR_RGB('ABS (White)',1.,0.615686274509804,0.);
ENDSEC;
END-ISO-10303-21;
